<?xml version="1.0" standalone="no"?>
<!DOCTYPE svg PUBLIC "-//W3C//DTD SVG 20010904//EN"
 "http://www.w3.org/TR/2001/REC-SVG-20010904/DTD/svg10.dtd">
<svg version="1.0" xmlns="http://www.w3.org/2000/svg"
 width="500.000000pt" height="500.000000pt" viewBox="0 0 500.000000 500.000000"
 preserveAspectRatio="xMidYMid meet">

<g transform="translate(0.000000,500.000000) scale(0.100000,-0.100000)"
fill="#000000" stroke="none">
<path d="M232 3884 c3 -101 4 -108 28 -125 14 -10 74 -29 135 -42 l109 -24
393 -1264 c216 -695 404 -1301 418 -1347 l26 -82 181 2 181 3 383 1150 c210
633 388 1176 395 1208 12 56 29 86 29 52 0 -9 179 -556 397 -1216 l397 -1199
180 2 181 3 416 1338 c229 736 418 1340 421 1342 2 2 55 15 118 29 62 15 122
34 132 43 15 14 18 32 18 125 l0 108 -490 0 -490 0 0 -105 c0 -93 2 -107 20
-123 12 -10 73 -28 148 -43 94 -18 127 -29 126 -40 -1 -8 -126 -434 -278 -948
-152 -514 -286 -985 -298 -1047 -11 -63 -23 -113 -25 -110 -2 2 -17 52 -33
112 -47 174 -747 2235 -767 2256 -34 38 -69 48 -165 48 -101 0 -141 -15 -173
-64 -25 -38 -724 -2106 -758 -2243 -17 -68 -32 -121 -34 -119 -2 1 -19 65 -38
142 -19 76 -156 553 -304 1058 -149 506 -268 922 -266 924 3 3 61 17 130 32
73 16 134 35 146 45 16 16 19 32 19 122 l0 103 -505 0 -506 0 3 -106z"/>
</g>
</svg>
